<svg width="35" height="35" viewBox="0 0 35 35" fill="none" xmlns="http://www.w3.org/2000/svg">
<circle cx="17.5" cy="17.5" r="17.5" fill="#E2E9F2"/>
<path fill-rule="evenodd" clip-rule="evenodd" d="M18.9952 10.099C18.9984 10.0665 19 10.0334 19 10C19 9.44772 18.5523 9 18 9C17.4477 9 17 9.44772 17 10C17 10.0334 17.0016 10.0665 17.0048 10.099C14.7202 10.5604 13 12.5793 13 15C13 15 13 15.5 12.5 18.5C12 21.5 11 22 11 22H13H23H25C25 22 24 21.5 23.5 18.5C23 15.5 23 15 23 15C23 12.5793 21.2798 10.5604 18.9952 10.099Z" fill="black"/>
<path d="M18 25C19.1046 25 20 24.1046 20 23H16C16 24.1046 16.8954 25 18 25Z" fill="black"/>
</svg>
