<svg width="16" height="16" viewBox="0 0 16 16" fill="none" xmlns="http://www.w3.org/2000/svg">
<g clip-path="url(#clip0_9_14529)">
<path fill-rule="evenodd" clip-rule="evenodd" d="M2 13.5V7H3V13.5C3 13.6326 3.05268 13.7598 3.14645 13.8536C3.24021 13.9473 3.36739 14 3.5 14H12.5C12.6326 14 12.7598 13.9473 12.8536 13.8536C12.9473 13.7598 13 13.6326 13 13.5V7H14V13.5C14 13.8978 13.842 14.2794 13.5607 14.5607C13.2794 14.842 12.8978 15 12.5 15H3.5C3.10218 15 2.72064 14.842 2.43934 14.5607C2.15804 14.2794 2 13.8978 2 13.5V13.5ZM13 2.5V6L11 4V2.5C11 2.36739 11.0527 2.24021 11.1464 2.14645C11.2402 2.05268 11.3674 2 11.5 2H12.5C12.6326 2 12.7598 2.05268 12.8536 2.14645C12.9473 2.24021 13 2.36739 13 2.5Z" fill="#FAFAFA"/>
<path fill-rule="evenodd" clip-rule="evenodd" d="M7.2929 1.50006C7.48043 1.31259 7.73474 1.20728 7.9999 1.20728C8.26506 1.20728 8.51937 1.31259 8.7069 1.50006L15.3539 8.14606C15.4478 8.23995 15.5005 8.36729 15.5005 8.50006C15.5005 8.63284 15.4478 8.76018 15.3539 8.85406C15.26 8.94795 15.1327 9.00069 14.9999 9.00069C14.8671 9.00069 14.7398 8.94795 14.6459 8.85406L7.9999 2.20706L1.3539 8.85406C1.26001 8.94795 1.13267 9.00069 0.999899 9.00069C0.867123 9.00069 0.739786 8.94795 0.645899 8.85406C0.552013 8.76018 0.499268 8.63284 0.499268 8.50006C0.499268 8.36729 0.552013 8.23995 0.645899 8.14606L7.2929 1.50006Z" fill="#FAFAFA"/>
</g>
<defs>
<clipPath id="clip0_9_14529">
<rect width="16" height="16" fill="white"/>
</clipPath>
</defs>
</svg>
