<svg width="16" height="16" viewBox="0 0 16 16" fill="none" xmlns="http://www.w3.org/2000/svg">
<g clip-path="url(#clip0_8_14514)">
<g clip-path="url(#clip1_8_14514)">
<path fill-rule="evenodd" clip-rule="evenodd" d="M3.81 3.063C3.95039 2.8875 4.12841 2.74579 4.33093 2.64835C4.53344 2.5509 4.75526 2.5002 4.98 2.5H11.02C11.2447 2.5002 11.4666 2.5509 11.6691 2.64835C11.8716 2.74579 12.0496 2.8875 12.19 3.063L15.89 7.688C15.9655 7.79204 15.998 7.92114 15.9808 8.04851C15.9636 8.17588 15.898 8.29173 15.7976 8.37202C15.6973 8.45231 15.5698 8.49087 15.4418 8.47969C15.3138 8.46852 15.1949 8.40846 15.11 8.312L11.41 3.688C11.3632 3.62944 11.3039 3.58214 11.2364 3.5496C11.1689 3.51706 11.0949 3.50011 11.02 3.5H4.98C4.90506 3.50011 4.8311 3.51706 4.7636 3.5496C4.69609 3.58214 4.63676 3.62944 4.59 3.688L0.89 8.312C0.85028 8.36676 0.799861 8.41288 0.741797 8.44759C0.683732 8.4823 0.619229 8.50486 0.552191 8.51391C0.485154 8.52297 0.416976 8.51832 0.351785 8.50027C0.286594 8.48221 0.225745 8.45111 0.172922 8.40885C0.120099 8.36659 0.0764007 8.31405 0.0444715 8.25441C0.0125422 8.19478 -0.00695374 8.12928 -0.0128362 8.06189C-0.0187186 7.9945 -0.0108653 7.92662 0.0102485 7.86235C0.0313623 7.79809 0.0652975 7.73877 0.11 7.688L3.81 3.063V3.063Z" fill="#FAFAFA"/>
<path fill-rule="evenodd" clip-rule="evenodd" d="M0.125006 7.67C0.171861 7.61667 0.229536 7.57392 0.294195 7.54461C0.358854 7.5153 0.429013 7.50009 0.500006 7.5H6.00001C6.13261 7.5 6.25979 7.55268 6.35356 7.64645C6.44733 7.74021 6.50001 7.86739 6.50001 8C6.50001 8.39782 6.65804 8.77936 6.93935 9.06066C7.22065 9.34196 7.60218 9.5 8.00001 9.5C8.39783 9.5 8.77936 9.34196 9.06067 9.06066C9.34197 8.77936 9.50001 8.39782 9.50001 8C9.50001 7.86739 9.55268 7.74021 9.64645 7.64645C9.74022 7.55268 9.8674 7.5 10 7.5H15.5C15.5709 7.50002 15.641 7.51511 15.7056 7.54427C15.7702 7.57343 15.8278 7.616 15.8747 7.66914C15.9216 7.72229 15.9567 7.7848 15.9776 7.85253C15.9985 7.92026 16.0048 7.99166 15.996 8.062L15.606 11.186C15.5607 11.5489 15.3843 11.8827 15.1101 12.1247C14.8359 12.3667 14.4827 12.5001 14.117 12.5H1.88301C1.51729 12.5001 1.16413 12.3667 0.889922 12.1247C0.615713 11.8827 0.439354 11.5489 0.394006 11.186L0.00400558 8.062C-0.00484014 7.99166 0.00137379 7.92024 0.0222351 7.85249C0.0430963 7.78473 0.078128 7.72218 0.125006 7.669V7.67ZM1.06601 8.5L1.38601 11.062C1.40114 11.1831 1.46002 11.2944 1.55156 11.3751C1.6431 11.4558 1.76099 11.5002 1.88301 11.5H14.117C14.2389 11.5 14.3565 11.4554 14.4478 11.3748C14.5392 11.2941 14.5979 11.1829 14.613 11.062L14.933 8.5H10.45C10.3352 9.06514 10.0286 9.57324 9.58214 9.93819C9.13563 10.3031 8.57668 10.5025 8.00001 10.5025C7.42333 10.5025 6.86438 10.3031 6.41788 9.93819C5.97137 9.57324 5.66476 9.06514 5.55001 8.5H1.06601V8.5Z" fill="#FAFAFA"/>
</g>
</g>
<defs>
<clipPath id="clip0_8_14514">
<rect width="16" height="16" fill="white"/>
</clipPath>
<clipPath id="clip1_8_14514">
<rect width="16" height="16" fill="white" transform="translate(0 -1)"/>
</clipPath>
</defs>
</svg>
