<svg width="75" height="27" viewBox="0 0 75 27" fill="none" xmlns="http://www.w3.org/2000/svg">
<path fill-rule="evenodd" clip-rule="evenodd" d="M15.1206 18.9348V0H12.0148V8.11883H3.10586V0H0V18.9348H3.10586V10.6526H12.0148V18.9348H15.1206ZM21.062 18.2265C22.2063 18.8622 23.4868 19.18 24.9035 19.18C26.3384 19.18 27.6461 18.8622 28.8267 18.2265C30.0254 17.5726 30.9699 16.6554 31.6601 15.4748C32.3503 14.2942 32.6954 12.9411 32.6954 11.4154C32.6954 9.88971 32.3594 8.53657 31.6873 7.35598C31.0153 6.17539 30.0981 5.26725 28.9357 4.63155C27.7732 3.99584 26.4746 3.67799 25.0397 3.67799C23.6048 3.67799 22.3062 3.99584 21.1438 4.63155C19.9813 5.26725 19.0641 6.17539 18.3921 7.35598C17.7201 8.53657 17.384 9.88971 17.384 11.4154C17.384 12.9592 17.711 14.3215 18.3648 15.5021C19.0187 16.6645 19.9178 17.5726 21.062 18.2265ZM27.1375 15.9107C26.4473 16.2921 25.7027 16.4829 24.9035 16.4829C23.6503 16.4829 22.6059 16.0469 21.7704 15.1751C20.9531 14.2851 20.5444 13.0319 20.5444 11.4154C20.5444 10.3256 20.7442 9.40839 21.1438 8.66371C21.5434 7.90087 22.0792 7.32874 22.7512 6.94732C23.4414 6.5659 24.1861 6.37519 24.9852 6.37519C25.7844 6.37519 26.5291 6.5659 27.2193 6.94732C27.9095 7.32874 28.4634 7.90087 28.8812 8.66371C29.2989 9.40839 29.5078 10.3256 29.5078 11.4154C29.5078 12.5052 29.2898 13.4315 28.8539 14.1943C28.418 14.9572 27.8459 15.5293 27.1375 15.9107ZM38.0542 6.12999C38.581 5.4398 39.2984 4.85858 40.2065 4.38635C41.1147 3.91411 42.1409 3.67799 43.2851 3.67799C44.5929 3.67799 45.7826 4.00492 46.8542 4.65879C47.9439 5.29449 48.7976 6.19356 49.4151 7.35598C50.0327 8.51841 50.3414 9.85338 50.3414 11.3609C50.3414 12.8684 50.0327 14.2216 49.4151 15.4203C48.7976 16.6009 47.9439 17.5272 46.8542 18.1992C45.7826 18.8531 44.5929 19.18 43.2851 19.18C42.1409 19.18 41.1238 18.953 40.2338 18.4989C39.3438 18.0267 38.6173 17.4455 38.0542 16.7553V26.0729H34.9484V3.92319H38.0542V6.12999ZM47.1811 11.3609C47.1811 10.3256 46.9631 9.43564 46.5272 8.69096C46.1095 7.92812 45.5464 7.35598 44.8381 6.97456C44.1479 6.57498 43.4032 6.37519 42.604 6.37519C41.823 6.37519 41.0784 6.57498 40.37 6.97456C39.6798 7.37415 39.1168 7.95536 38.6809 8.7182C38.2631 9.48104 38.0542 10.3801 38.0542 11.4154C38.0542 12.4507 38.2631 13.3588 38.6809 14.1398C39.1168 14.9027 39.6798 15.4839 40.37 15.8835C41.0784 16.2831 41.823 16.4829 42.604 16.4829C43.4032 16.4829 44.1479 16.2831 44.8381 15.8835C45.5464 15.4657 46.1095 14.8664 46.5272 14.0853C46.9631 13.3043 47.1811 12.3962 47.1811 11.3609ZM66.2449 12.5869C66.3176 12.1328 66.3539 11.6243 66.3539 11.0612C66.3539 9.60819 66.0451 8.3277 65.4276 7.21976C64.8101 6.09366 63.9473 5.22184 62.8394 4.6043C61.7314 3.98676 60.4691 3.67799 59.0524 3.67799C57.5812 3.67799 56.2735 3.99584 55.1292 4.63155C54.0031 5.26725 53.1222 6.17539 52.4865 7.35598C51.869 8.51841 51.5602 9.87155 51.5602 11.4154C51.5602 12.9592 51.8781 14.3215 52.5138 15.5021C53.1676 16.6645 54.0576 17.5726 55.1837 18.2265C56.328 18.8622 57.6175 19.18 59.0524 19.18C60.8142 19.18 62.2854 18.7441 63.466 17.8723C64.6648 16.9823 65.4912 15.8471 65.9452 14.4668H62.5942C61.904 15.8653 60.7234 16.5646 59.0524 16.5646C57.89 16.5646 56.9092 16.2013 56.11 15.4748C55.3109 14.7483 54.8659 13.7857 54.775 12.5869H66.2449ZM61.8858 7.32874C62.685 8.01893 63.0937 8.93616 63.1118 10.0804H54.8023C54.9476 8.91799 55.4017 8.00077 56.1645 7.32874C56.9273 6.63855 57.8446 6.29345 58.9162 6.29345C60.0968 6.29345 61.0867 6.63855 61.8858 7.32874ZM71.021 3.4552C68.9675 3.4552 67.3059 5.11683 67.3059 7.17035C67.3059 9.22386 68.9675 10.8855 71.021 10.8855C73.0745 10.8855 74.7362 9.22386 74.7362 7.17035C74.7362 5.11683 73.0745 3.4552 71.021 3.4552ZM71.021 10.3839C69.2497 10.3839 67.8075 8.9417 67.8075 7.17035C67.8075 5.39899 69.2497 3.95683 71.021 3.95683C72.7924 3.95683 74.2346 5.39899 74.2346 7.17035C74.2346 8.9417 72.7924 10.3839 71.021 10.3839ZM72.1184 6.91951H69.9238V5.14815H69.4065V9.19248H69.9238V7.42113H72.1184V9.19248H72.62V5.14815H72.1184V6.91951Z" fill="#FAFAFA"/>
</svg>
