<svg width="16" height="16" viewBox="0 0 16 16" fill="none" xmlns="http://www.w3.org/2000/svg">
<g clip-path="url(#clip0_8_14518)">
<path fill-rule="evenodd" clip-rule="evenodd" d="M10.4417 10.4417C10.5346 10.3487 10.6449 10.275 10.7663 10.2247C10.8877 10.1743 11.0178 10.1484 11.1492 10.1484C11.2806 10.1484 11.4107 10.1743 11.5321 10.2247C11.6535 10.275 11.7638 10.3487 11.8567 10.4417L15.7067 14.2917C15.8943 14.4792 15.9998 14.7336 15.9999 14.9989C16 15.2641 15.8947 15.5186 15.7072 15.7062C15.5197 15.8939 15.2653 15.9993 15.0001 15.9994C14.7348 15.9995 14.4803 15.8942 14.2927 15.7067L10.4427 11.8567C10.3497 11.7639 10.276 11.6536 10.2256 11.5322C10.1753 11.4108 10.1494 11.2806 10.1494 11.1492C10.1494 11.0178 10.1753 10.8877 10.2256 10.7663C10.276 10.6449 10.3497 10.5346 10.4427 10.4417H10.4417Z" fill="#FAFAFA"/>
<path fill-rule="evenodd" clip-rule="evenodd" d="M6.5 12C7.22227 12 7.93747 11.8577 8.60476 11.5813C9.27205 11.3049 9.87837 10.8998 10.3891 10.3891C10.8998 9.87837 11.3049 9.27205 11.5813 8.60476C11.8577 7.93747 12 7.22227 12 6.5C12 5.77773 11.8577 5.06253 11.5813 4.39524C11.3049 3.72795 10.8998 3.12163 10.3891 2.61091C9.87837 2.10019 9.27205 1.69506 8.60476 1.41866C7.93747 1.14226 7.22227 1 6.5 1C5.04131 1 3.64236 1.57946 2.61091 2.61091C1.57946 3.64236 1 5.04131 1 6.5C1 7.95869 1.57946 9.35764 2.61091 10.3891C3.64236 11.4205 5.04131 12 6.5 12V12ZM13 6.5C13 8.22391 12.3152 9.87721 11.0962 11.0962C9.87721 12.3152 8.22391 13 6.5 13C4.77609 13 3.12279 12.3152 1.90381 11.0962C0.684819 9.87721 0 8.22391 0 6.5C0 4.77609 0.684819 3.12279 1.90381 1.90381C3.12279 0.684819 4.77609 0 6.5 0C8.22391 0 9.87721 0.684819 11.0962 1.90381C12.3152 3.12279 13 4.77609 13 6.5V6.5Z" fill="#FAFAFA"/>
</g>
<defs>
<clipPath id="clip0_8_14518">
<rect width="16" height="16" fill="white"/>
</clipPath>
</defs>
</svg>
