<svg width="13" height="8" viewBox="0 0 13 8" fill="none" xmlns="http://www.w3.org/2000/svg">
<path d="M5.49652 7.64L0.700523 2.158C0.134523 1.513 0.594523 0.5 1.45352 0.5H11.0455C11.2378 0.499836 11.426 0.555088 11.5876 0.659141C11.7493 0.763194 11.8775 0.911637 11.957 1.08669C12.0364 1.26175 12.0637 1.456 12.0356 1.64618C12.0075 1.83636 11.9252 2.01441 11.7985 2.159L7.00252 7.639C6.90866 7.74641 6.79291 7.8325 6.66303 7.89148C6.53316 7.95046 6.39216 7.98098 6.24952 7.98098C6.10688 7.98098 5.96589 7.95046 5.83601 7.89148C5.70614 7.8325 5.59038 7.74641 5.49652 7.639V7.64Z" fill="#121212"/>
</svg>
